<svg id="SvgjsSvg1000" xmlns="http://www.w3.org/2000/svg" version="1.1" xmlns:xlink="http://www.w3.org/1999/xlink" xmlns:svgjs="http://svgjs.com/svgjs" width="16" height="23" viewBox="0 0 16 23"><title>маркер</title><desc>Created with Avocode.</desc><defs id="SvgjsDefs1001"></defs><path id="SvgjsPath1007" d="M644.314 6813.48C640.179 6813.48 636.831 6816.36 636.831 6820.3099999999995C636.831 6824.469999999999 644.314 6835.459999999999 644.314 6835.459999999999C644.314 6835.459999999999 651.799 6824.899999999999 651.799 6820.3099999999995C651.799 6816.36 648.448 6813.48 644.314 6813.48ZM644.314 6824.47C642.319 6824.47 640.702 6822.88 640.702 6820.92C640.702 6818.95 642.319 6817.36 644.314 6817.36C646.308 6817.36 647.925 6818.95 647.925 6820.92C647.925 6822.88 646.308 6824.47 644.314 6824.47Z " fill="#ffd216" fill-opacity="1" transform="matrix(1,0,0,1,-636,-6813)"></path></svg>