<svg id="Layer_2" data-name="Layer 2" xmlns="http://www.w3.org/2000/svg" viewBox="0 0 30 30"><defs><style>.cls-1{fill:#58595b;}</style></defs><title>like-grey</title><path class="cls-1" d="M15,30A15,15,0,0,0,29.3,10.47L22.76,12.6l-0.11-.3c-0.31.16-.63,0.32-0.93,0.49-2.32,1.31-3.07,3.42-4.19,5.66-1,1.91-2.68,3.54-3.38,5.55a9.72,9.72,0,0,0-.46,2,3.06,3.06,0,0,1-.09,1.24c-0.68.91-1.48,0.14-1.92-.52-1.4-2.07-.13-4.36.72-6.37,0.38-.89.85-1.52-0.31-1.82l-1.66-.43c-0.81-.21-1.62.11-2.45-0.25a2.54,2.54,0,0,1-1.39-1.27,3.63,3.63,0,0,1,0-1.55c0-.81-0.62-1.33-0.52-2.17,0.06-.53.46-0.82,0.49-1.35a7.41,7.41,0,0,1-.09-1.58A1.22,1.22,0,0,1,7,9.1a0.81,0.81,0,0,0,.43-0.86c0.05-1.48,1.86-1.89,3.17-2,2-.19,3.76-0.09,5.73-0.37l0.14,0h0a25.35,25.35,0,0,0,3.32-1.95L19.27,2.52l2.24-1A15,15,0,1,0,15,30Z"/></svg>