<svg id="Layer_2" data-name="Layer 2" xmlns="http://www.w3.org/2000/svg" viewBox="0 0 30 30"><defs><style>.cls-1{fill:#19b14c;}</style></defs><title>like-green</title><path class="cls-1" d="M15,0A15,15,0,0,0,.7,19.53L7.24,17.4l0.11,0.3,0.93-.49c2.32-1.31,3.07-3.42,4.19-5.66C13.42,9.64,15.15,8,15.85,6a9.47,9.47,0,0,0,.46-2,3.13,3.13,0,0,1,.09-1.24c0.68-.91,1.47-0.14,1.92.52,1.4,2.07.13,4.36-.72,6.36-0.38.89-.86,1.53,0.31,1.83l1.66,0.43c0.81,0.21,1.62-.11,2.44.25a2.52,2.52,0,0,1,1.4,1.27,3.65,3.65,0,0,1,0,1.55c0,0.81.61,1.33,0.52,2.17-0.06.53-.46,0.82-0.49,1.35a7.68,7.68,0,0,1,.1,1.58,1.22,1.22,0,0,1-.51.82,0.82,0.82,0,0,0-.43.86c0,1.48-1.86,1.89-3.17,2-2,.19-3.77.09-5.73,0.37l-0.14,0h0a25.32,25.32,0,0,0-3.32,1.95l0.47,1.37-2.24,1A15,15,0,1,0,15,0Z"/></svg>