<?xml version="1.0" encoding="UTF-8"?><!DOCTYPE svg PUBLIC "-//W3C//DTD SVG 1.1//EN" "http://www.w3.org/Graphics/SVG/1.1/DTD/svg11.dtd"><svg xmlns="http://www.w3.org/2000/svg"><symbol id="icon-arr-double_d" viewBox="0 0 32 32">
    <g>
        <path d="M22.285 15.349L16 21.544l-6.285-6.196a1.016 1.016 0 0 0-1.428 0 .994.994 0 0 0 0 1.414l6.999 6.899c.379.375 1.048.377 1.429 0l6.999-6.9a.994.994 0 0 0 0-1.414 1.019 1.019 0 0 0-1.429.002z"/>
        <path d="M15.286 16.662c.379.375 1.048.377 1.429 0l6.999-6.899a.994.994 0 0 0 0-1.414 1.016 1.016 0 0 0-1.428 0L16 14.544 9.715 8.349a1.016 1.016 0 0 0-1.428 0 .994.994 0 0 0 0 1.414l6.999 6.899z"/>
    </g>
</symbol><symbol id="icon-arrow-bold" viewBox="0 0 23 34">
    <title>
        ArrowR
    </title>
    <path d="M6.32 33.51L21.54 18.5c.66-.66.66-1.72 0-2.37L6.68 1.48c-.66-.66-1.74-.66-2.4 0L.87 4.84c-.66.65-.66 1.71 0 2.37l9.04 8.91c.67.66.67 1.72 0 2.38L.5 27.78c-.66.65-.66 1.71 0 2.37l3.41 3.36c.67.65 1.74.65 2.41 0z"/>
</symbol><symbol id="icon-arr_big" viewBox="0 0 88 39">
    <title>
        Color Fill 585
    </title>
    <path d="M88 0L44 30 0 0v9l44 30L88 9z"/>
</symbol><symbol id="icon-arr_vector" viewBox="0 0 28 79">
    <title>
        Shape 7
    </title>
    <path d="M.928.24A.988.988 0 0 1 2.31.5l25.452 37.74c.229.34.231.79.006 1.13L1.946 78.47a.987.987 0 0 1-.83.44 1.01 1.01 0 0 1-.551-.16 1.019 1.019 0 0 1-.276-1.4l25.45-38.54L.665 1.64C.355 1.18.473.55.928.24"/>
</symbol><symbol id="icon-cellphone" viewBox="0 0 34.482 34.482">
    <path d="M25.043 0H9.439a2.37 2.37 0 0 0-2.364 2.364v29.755a2.37 2.37 0 0 0 2.364 2.363h15.604a2.37 2.37 0 0 0 2.364-2.363V2.364A2.37 2.37 0 0 0 25.043 0zM12.804 31.76h-2.548a.85.85 0 1 1 0-1.7h2.548a.85.85 0 0 1 0 1.7zm0-3.24h-2.548a.85.85 0 0 1 0-1.7h2.548a.85.85 0 0 1 0 1.7zm0-3.24h-2.548a.85.85 0 1 1 0-1.7h2.548a.85.85 0 0 1 0 1.7zm0-3.239h-2.548a.85.85 0 0 1 0-1.701h2.548a.851.851 0 0 1 0 1.701zm5.711 9.719h-2.547a.85.85 0 1 1 0-1.7h2.547a.85.85 0 0 1 0 1.7zm0-3.24h-2.547a.85.85 0 1 1 0-1.7h2.547a.85.85 0 1 1 0 1.7zm0-3.24h-2.547a.85.85 0 1 1 0-1.7h2.547a.85.85 0 1 1 0 1.7zm0-3.239h-2.547a.85.85 0 1 1 0-1.701h2.547a.85.85 0 0 1 0 1.701zm5.711 9.719h-2.549a.85.85 0 1 1 0-1.7h2.549a.85.85 0 0 1 0 1.7zm0-3.24h-2.549a.85.85 0 0 1 0-1.7h2.549a.85.85 0 0 1 0 1.7zm0-3.24h-2.549a.85.85 0 1 1 0-1.7h2.549a.85.85 0 0 1 0 1.7zm0-3.239h-2.549a.85.85 0 0 1 0-1.701h2.549a.851.851 0 0 1 0 1.701zm.9-3.661H9.356V2.771h15.77V18.38z"/>
</symbol><symbol id="icon-check" viewBox="0 0 15 12">
    <title>
        Shape 3 copy
    </title>
    <path d="M6.378 11.99L.952 6.57l2.447-2.44L6.378 7.1l6.15-6.14 2.447 2.45z"/>
</symbol><symbol id="icon-closed" viewBox="0 0 512 512">
    <path d="M437.5 386.6L306.9 256l130.6-130.6c14.1-14.1 14.1-36.8 0-50.9-14.1-14.1-36.8-14.1-50.9 0L256 205.1 125.4 74.5c-14.1-14.1-36.8-14.1-50.9 0-14.1 14.1-14.1 36.8 0 50.9L205.1 256 74.5 386.6c-14.1 14.1-14.1 36.8 0 50.9 14.1 14.1 36.8 14.1 50.9 0L256 306.9l130.6 130.6c14.1 14.1 36.8 14.1 50.9 0 14-14.1 14-36.9 0-50.9z"/>
</symbol><symbol id="icon-facebook" viewBox="0 0 10 19">
    <title>
        facebook
    </title>
    <path d="M9.766.157v2.946H8.014c-.64 0-1.071.134-1.295.402-.223.268-.335.67-.335 1.205v2.11h3.27l-.435 3.303H6.384v8.471H2.97v-8.47H.123V6.82H2.97V4.387c0-1.384.387-2.457 1.161-3.22C4.904.404 5.934.023 7.222.023c1.093 0 1.941.045 2.544.134z" fill-rule="evenodd"/>
</symbol><symbol id="icon-less" viewBox="0 0 48 48">
    <path d="M24 0C10.745 0 0 10.745 0 24s10.745 24 24 24 24-10.745 24-24S37.255 0 24 0zm10.031 24.766c0 1.11-.9 1.306-1.354 1.333h-17.38c-1.221 0-1.322-.931-1.328-1.178v-1.809c.005-.27.108-1.211 1.328-1.211H32.56c.306.006 1.472.105 1.472 1.286v1.579z"/>
</symbol><symbol id="icon-marker" viewBox="0 0 16 23">
    <title>
        &#x43C;&#x430;&#x440;&#x43A;&#x435;&#x440;
    </title>
    <path d="M8.314.48C4.179.48.831 3.36.831 7.31c0 4.16 7.483 15.15 7.483 15.15s7.485-10.56 7.485-15.15c0-3.95-3.351-6.83-7.485-6.83zm0 10.99c-1.995 0-3.612-1.59-3.612-3.55 0-1.97 1.617-3.56 3.612-3.56 1.994 0 3.611 1.59 3.611 3.56 0 1.96-1.617 3.55-3.611 3.55z"/>
</symbol><symbol id="icon-more" viewBox="0 0 48 48">
    <path d="M24 0C10.745 0 0 10.745 0 24c0 13.254 10.745 24 24 24s24-10.746 24-24C48 10.745 37.255 0 24 0zm10.031 24.766c0 1.109-.9 1.305-1.354 1.332h-6.581l-.008 6.607c-.002 1.221-.933 1.322-1.18 1.326l-1.808-.002c-.27-.006-1.211-.109-1.209-1.33l.008-6.602h-6.602c-1.221 0-1.322-.93-1.328-1.178V23.11c.005-.27.108-1.211 1.328-1.211h6.607l.008-6.463c.006-.306.107-1.472 1.288-1.47l1.578.002c1.11.001 1.305.902 1.331 1.356l-.007 6.576h6.458c.306.006 1.472.105 1.472 1.287v1.579z"/>
</symbol><symbol id="icon-star" viewBox="0 0 27 25">
    <title>
        Shape 6
    </title>
    <path d="M26.76 10.052l-8.97-1.264L13.78.879 9.76 8.788.79 10.052l6.49 6.159-1.53 8.691 8.03-4.103 8.02 4.103-1.53-8.691z"/>
</symbol><symbol id="icon-user" viewBox="0 0 43.028 43.028">
    <path d="M39.561 33.971l-.145.174c-4.774 5.728-11.133 8.884-17.902 8.884-6.77 0-13.128-3.155-17.903-8.884l-.144-.174.034-.223c.922-6.014 4.064-10.845 8.847-13.606l.34-.196.271.284c2.259 2.37 5.297 3.674 8.554 3.674s6.295-1.305 8.554-3.674l.271-.284.34.196c4.783 2.761 7.925 7.592 8.848 13.606l.035.223zM21.514 21.489c5.924 0 10.744-4.82 10.744-10.744C32.258 4.821 27.438 0 21.514 0S10.77 4.821 10.77 10.744s4.82 10.745 10.744 10.745z"/>
</symbol></svg>